# xmcd CD database file
#
# Track frame offsets:
#	150
#	20709
#	41335
#	61894
#	82461
#	103389
#	123854
#	143559
#	164549
#	183878
#	204245
#	226205
#	250322
#	273751
#	298808
#	323260
#
# Disc length: 4615 seconds
#
# Revision: 0
# Processed by: cddbd v1.5.2PL0 Copyright (c) Steve Scherf et al.
# Submitted via: CDex 1.50
#
DISCID=de120510
DTITLE=Recopilacion Salsa - 18
DYEAR=1900
DGENRE=Salsa
TTITLE0=Amiga mia- la Fuga
TTITLE1=Andy y Lucas - Dame un besito
TTITLE2=Andy y Lucas - Hasta los huesos
TTITLE3=Andy y Lucas - La llama del amor
TTITLE4=Andy y Lucas - Mirame a la cara
TTITLE5=Andy y Lucas - Son de amores
TTITLE6=Andy y Lucas - Tanto la queria
TTITLE7=Andy y Lucas - Caido del cielo
TTITLE8=Andy y Lucas - Un rinconcito al sur
TTITLE9=Antes - Obie Bermudez
TTITLE10=Maelo - La Dueña de mi Corazon
TTITLE11=Marc Anthony - Volando entre tus Brazos
TTITLE12=Marc Anthony - Ahora Quien
TTITLE13=Marc Anthony - Escapemonos
TTITLE14=Nada Personal - Bianca y Hector Rey
TTITLE15=Veneno - Pasion Juvenil
EXTD=
EXTT0=
EXTT1=
EXTT2=
EXTT3=
EXTT4=
EXTT5=
EXTT6=
EXTT7=
EXTT8=
EXTT9=
EXTT10=
EXTT11=
EXTT12=
EXTT13=
EXTT14=
EXTT15=
PLAYORDER=
